<svg xmlns="http://www.w3.org/2000/svg" xmlns:xlink="http://www.w3.org/1999/xlink" version="1.1"
    width="400" height="400" viewBox="0 0 400 400" xml:space="preserve">
<desc>Created with Fabric.js 4.6.0</desc>
<defs>
</defs>
<g transform="matrix(1.01 0 0 1.02 200 200)" id="M1dIy-NnK-G05sB353gIi"  >
<path style="stroke: none; stroke-width: 0; stroke-dasharray: none; stroke-linecap: butt; stroke-dashoffset: 0; stroke-linejoin: miter; stroke-miterlimit: 4; fill: rgb(255,255,255); fill-rule: evenodd; opacity: 1;" vector-effect="non-scaling-stroke"  transform=" translate(0, 0)" d="M -24.584 -180.054 C -115.22 -167.231 -184.243 -92.29 -187.282 -3.4099999999999966 C -187.89600000000002 14.555000000000003 -194.068 12.517000000000003 -139.06300000000002 12.517000000000003 L -93.75000000000001 12.517000000000003 L -93.79200000000002 22.087000000000003 L -93.83500000000002 31.658 L -97.50300000000003 34.001000000000005 C -99.52100000000003 35.290000000000006 -102.22700000000003 37.996 -103.51600000000003 40.014 L -105.85900000000004 43.682 L -119.88400000000004 43.725 L -133.90800000000004 43.767 L -143.39100000000005 34.392 L -152.87400000000005 25.017000000000003 L -167.06200000000004 25.017000000000003 L -181.25000000000003 25.017000000000003 L -181.25000000000003 31.267000000000003 L -181.25000000000003 37.517 L -170.54600000000002 37.517 L -159.842 37.517 L -150.359 46.892 L -140.876 56.267 L -123.36800000000001 56.309000000000005 L -105.85900000000001 56.352000000000004 L -103.516 60.02 C -102.227 62.038000000000004 -99.521 64.744 -97.503 66.033 L -93.835 68.376 L -93.79199999999999 74.822 L -93.74999999999999 81.267 L -112.76499999999999 81.267 L -131.77999999999997 81.267 L -132.62699999999998 79.41 C -141.004 61.024 -168.80399999999997 67.39699999999999 -168.73299999999998 87.687 C -168.66599999999997 106.757 -144.34699999999998 113.624 -133.98399999999998 97.499 L -131.641 93.85199999999999 L -108.008 93.80899999999998 C -78.693 93.75699999999998 -81.267 95.12999999999998 -81.208 79.50899999999999 L -81.16499999999999 68.37599999999999 L -77.51799999999999 66.03299999999999 C -64.93099999999998 57.94399999999999 -65.97799999999998 38.755999999999986 -79.33899999999998 32.667999999999985 C -81.21599999999998 31.812999999999985 -81.24999999999999 31.625999999999983 -81.24999999999999 22.156999999999986 L -81.24999999999999 12.516999999999985 L -68.74999999999999 12.516999999999985 L -56.249999999999986 12.516999999999985 L -56.249999999999986 48.59599999999999 L -56.249999999999986 84.67599999999999 L -43.749999999999986 97.25899999999999 L -31.249999999999986 109.84199999999998 L -31.249999999999986 133.32 L -31.249999999999986 156.797 L -33.106999999999985 157.644 C -51.40999999999998 165.983 -45.17599999999999 193.733 -24.999999999999986 193.733 C -4.823999999999987 193.733 1.4100000000000144 165.983 -16.892999999999986 157.644 L -18.749999999999986 156.797 L -18.749999999999986 133.343 L -18.749999999999986 109.88899999999998 L -12.499999999999986 103.48599999999998 L -6.249999999999986 97.08299999999997 L -6.207999999999986 79.60499999999996 L -6.164999999999986 62.12599999999996 L -2.517999999999986 59.78299999999996 C 10.069000000000013 51.69399999999996 9.022000000000013 32.50599999999996 -4.338999999999986 26.417999999999957 C -6.143999999999986 25.595999999999957 -6.249999999999986 25.185999999999957 -6.249999999999986 19.031999999999957 L -6.249999999999986 12.516999999999957 L 23.193000000000016 12.516999999999957 L 52.63600000000002 12.516999999999957 L 45.06800000000002 20.219999999999956 L 37.50000000000002 27.922999999999956 L 37.50000000000002 36.10999999999996 C 37.50000000000002 43.97199999999996 37.42600000000002 44.33099999999996 35.64300000000002 45.143999999999956 C 21.453000000000024 51.60899999999995 21.453000000000024 73.42499999999995 35.64300000000002 79.88999999999996 C 37.41800000000002 80.69899999999996 37.50000000000002 81.08099999999996 37.50000000000002 88.56599999999996 L 37.50000000000002 96.39499999999995 L 31.25000000000002 102.79799999999996 L 25.00000000000002 109.20099999999996 L 25.00000000000002 129.87399999999997 L 25.00000000000002 150.54699999999997 L 23.143000000000022 151.39399999999998 C 4.840000000000021 159.73299999999998 11.074000000000021 187.48299999999998 31.25000000000002 187.48299999999998 C 51.426000000000016 187.48299999999998 57.660000000000025 159.73299999999998 39.35700000000002 151.39399999999998 L 37.50000000000002 150.54699999999997 L 37.50000000000002 133.34299999999996 L 37.50000000000002 116.13899999999995 L 43.75000000000002 109.73599999999995 L 50.00000000000002 103.33299999999994 L 50.04200000000002 92.10499999999995 L 50.08500000000002 80.87599999999995 L 53.75300000000002 78.53299999999994 C 55.77100000000002 77.24399999999994 58.47700000000002 74.53799999999994 59.76600000000002 72.51999999999994 L 62.10900000000002 68.85199999999993 L 79.61800000000002 68.80899999999993 L 97.12600000000002 68.76699999999992 L 106.60900000000002 59.391999999999925 L 116.09200000000003 50.016999999999925 L 130.116 50.058999999999926 L 144.14100000000002 50.101999999999926 L 146.484 53.748999999999924 C 152.91400000000002 63.75399999999993 166.562 65.73999999999992 175.22400000000002 57.930999999999926 C 185.11200000000002 49.01599999999993 182.60000000000002 31.857999999999926 170.60700000000003 26.393999999999927 C 168.86800000000002 25.600999999999928 168.75000000000003 25.133999999999926 168.75000000000003 19.031999999999925 L 168.75000000000003 12.516999999999925 L 176.56300000000002 12.516999999999925 C 187.98600000000002 12.516999999999925 187.834 12.741999999999924 187.282 -3.4100000000000747 C 184.34300000000002 -89.37200000000007 118.861 -163.39800000000008 32.031000000000006 -178.9180000000001 C 19.459000000000007 -181.16600000000008 -12.234999999999992 -181.8010000000001 -24.583999999999996 -180.0540000000001 M 5.244 -166.287 C 11.587 -162.366 19.436999999999998 -148.531 25.353 -130.842 L 28.75 -120.686 L 26.68 -120.08600000000001 C 25.541 -119.75700000000002 13.535 -119.48700000000001 0 -119.48700000000001 C -13.535 -119.48700000000001 -25.55 -119.757 -26.701 -120.08600000000001 L -28.792 -120.686 L -25.687 -130.061 C -16.083000000000002 -159.05200000000002 -4.673000000000002 -172.416 5.244 -166.287 M -25.791 -163.85 C -25.796 -163.743 -27.71 -159.855 -30.045 -155.21099999999998 C -32.379000000000005 -150.56699999999998 -36.154 -140.97099999999998 -38.434 -133.88699999999997 L -42.577999999999996 -121.00699999999998 L -46.093999999999994 -121.42299999999997 C -59.71399999999999 -123.03399999999998 -75.00299999999999 -125.28299999999997 -75.836 -125.79799999999997 C -77.699 -126.94999999999997 -62.988 -142.26999999999998 -52.861 -149.72499999999997 C -44.159 -156.13099999999997 -25.698999999999998 -165.76399999999995 -25.790999999999997 -163.84999999999997 M 31.866 -161.77 C 46.095 -155.90200000000002 60.92 -144.781 72.816 -131.048 C 75.72800000000001 -127.687 76.558 -126.244 75.836 -125.798 C 75.003 -125.283 59.714 -123.034 46.093999999999994 -121.423 L 42.577999999999996 -121.007 L 38.434 -133.887 C 36.153999999999996 -140.971 32.379 -150.567 30.044999999999998 -155.211 C 27.709999999999997 -159.85500000000002 25.796 -163.74300000000002 25.790999999999997 -163.85000000000002 C 25.772 -164.23700000000002 26.429 -164.01200000000003 31.865999999999996 -161.77 M -76.287 -146.663 C -80.161 -142.68800000000002 -85.19500000000001 -137.044 -87.474 -134.119 C -89.753 -131.195 -92.009 -128.942 -92.488 -129.113 C -92.967 -129.283 -95.908 -130.074 -99.023 -130.869 C -102.139 -131.665 -104.687 -132.58 -104.687 -132.904 C -104.687 -134.435 -72.425 -153.703 -69.583 -153.869 C -69.396 -153.88 -72.413 -150.637 -76.28699999999999 -146.663 M 96.415 -138.947 C 106.19300000000001 -132.43 106.143 -132.563 99.414 -130.903 C 96.514 -130.188 93.566 -129.43099999999998 92.864 -129.22199999999998 C 91.98400000000001 -128.95999999999998 90.301 -130.492 87.459 -134.13899999999998 C 85.18900000000001 -137.052 80.138 -142.73299999999998 76.236 -146.76299999999998 L 69.141 -154.08999999999997 L 78.641 -149.27599999999998 C 83.866 -146.628 91.864 -141.98 96.415 -138.94699999999997 M -107.393 -119.36 L -99.518 -116.949 L -103.665 -109.443 C -108.64500000000001 -100.42999999999999 -113.35600000000001 -89.875 -117.134 -79.262 C -119.531 -72.53 -120.141 -71.474 -121.484 -71.73 C -123.96 -72.203 -148.72299999999998 -80.375 -149.79399999999998 -81.07300000000001 C -152.90499999999997 -83.10100000000001 -120.10199999999998 -123.625 -116.47499999999998 -122.233 C -115.81099999999998 -121.97800000000001 -111.72399999999998 -120.685 -107.39299999999997 -119.36 M 124.725 -115.413 C 137.268 -102.437 151.875 -82.429 149.79399999999998 -81.073 C 148.72299999999998 -80.375 123.95999999999998 -72.20299999999999 121.48399999999998 -71.72999999999999 C 120.14099999999998 -71.47399999999999 119.53099999999998 -72.52999999999999 117.13399999999999 -79.26199999999999 C 113.36399999999999 -89.85099999999998 108.64199999999998 -100.42799999999998 103.69799999999998 -109.35799999999999 L 99.58899999999998 -116.77999999999999 L 108.19299999999998 -119.62799999999999 C 112.92499999999998 -121.19399999999999 117.00899999999999 -122.51299999999999 117.26799999999999 -122.55799999999999 C 117.52699999999999 -122.603 120.88299999999998 -119.38699999999999 124.72499999999998 -115.413 M -70.938 -111.396 C -63.934000000000005 -110.324 -56.094 -109.233 -53.516000000000005 -108.971 C -44.815000000000005 -108.087 -45.343 -108.561 -46.566 -102.726 C -48.29 -94.5 -50.665000000000006 -80.006 -52.006 -69.514 C -52.693 -64.143 -53.348 -59.65599999999999 -53.462 -59.541999999999994 C -54.230000000000004 -58.773999999999994 -87.878 -63.99999999999999 -103.256 -67.277 L -106.903 -68.054 L -105.12 -73.276 C -99.393 -90.05199999999999 -86.96000000000001 -114.60499999999999 -84.644 -113.716 C -84.11 -113.511 -77.94200000000001 -112.467 -70.938 -111.396 M 89.6 -107.21 C 96.01599999999999 -96.258 100.979 -85.405 105.11999999999999 -73.276 L 106.90299999999999 -68.054 L 103.25599999999999 -67.277 C 87.88299999999998 -64.001 54.253999999999984 -58.75 53.496999999999986 -59.507000000000005 C 53.36399999999998 -59.64000000000001 52.692999999999984 -64.143 52.00499999999999 -69.51400000000001 C 50.728999999999985 -79.48 47.40899999999999 -99.57900000000001 46.16499999999999 -104.87100000000001 C 45.34899999999999 -108.34100000000001 44.248999999999995 -107.93400000000001 59.37499999999999 -109.75900000000001 C 67.538 -110.74400000000001 80.66799999999999 -112.87500000000001 85.181 -113.94700000000002 C 85.40899999999999 -114.00100000000002 87.39699999999999 -110.96900000000002 89.6 -107.21000000000002 M 32.393 -105.452 C 34.386 -98.63499999999999 40.528999999999996 -59.001999999999995 39.719 -58.190999999999995 C 38.218 -56.690999999999995 -38.217999999999996 -56.690999999999995 -39.719 -58.190999999999995 C -40.529 -59.001999999999995 -34.386 -98.63499999999999 -32.393 -105.452 C -31.875 -107.223 31.875 -107.223 32.393 -105.452 M -135.121 -61.858 L -123.757 -58.358 L -125.476 -50.711 C -128.019 -39.397999999999996 -130.46699999999998 -21.403 -131.011 -10.016999999999996 L -131.49099999999999 0.01700000000000479 L -152.97199999999998 0.01700000000000479 L -174.45399999999998 0.01700000000000479 L -173.95299999999997 -7.614999999999995 C -172.753 -25.931999999999995 -165.64199999999997 -52.78399999999999 -158.16099999999997 -67.251 L -157.02799999999996 -69.44300000000001 L -151.75599999999997 -67.4 C -148.85699999999997 -66.277 -141.37099999999998 -63.78300000000001 -135.12099999999998 -61.858000000000004 M 162.44 -57.068 C 168.895 -40.64 174.204 -16.75 174.215 -4.085000000000001 L 174.219 0.01699999999999946 L 152.855 0.01699999999999946 L 131.49099999999999 0.01699999999999946 L 130.968 -10.335 C 130.37099999999998 -22.147 128.084 -38.900000000000006 125.48799999999999 -50.468 L 123.71399999999998 -58.375 L 133.146 -61.219 C 138.33399999999997 -62.784 145.742 -65.254 149.60899999999998 -66.708 C 158.05899999999997 -69.886 157.129 -70.585 162.43999999999997 -57.068 M -75.391 -48.856 C -67.656 -47.765 -59.785000000000004 -46.664 -57.900000000000006 -46.410000000000004 L -54.47200000000001 -45.949000000000005 L -54.97800000000001 -40.349000000000004 C -55.25600000000001 -37.269000000000005 -55.71200000000001 -26.926000000000002 -55.99000000000001 -17.366000000000003 L -56.49600000000001 0.016999999999995907 L -87.23200000000001 0.016999999999995907 L -117.96900000000001 0.016999999999995907 L -117.96900000000001 -4.978000000000004 C -117.96900000000001 -15.280000000000005 -115.65700000000001 -33.053000000000004 -112.415 -47.678000000000004 L -110.76100000000001 -55.139 L -100.10700000000001 -52.989000000000004 C -94.24700000000001 -51.807 -83.12500000000001 -49.947 -75.39100000000002 -48.856 M 114.433 -37.092 C 116.60700000000001 -24.727999999999998 117.96900000000001 -12.36 117.96900000000001 -4.9780000000000015 L 117.96900000000001 0.016999999999998572 L 87.23200000000001 0.016999999999998572 L 56.49600000000001 0.016999999999998572 L 55.99000000000001 -17.366 C 55.71200000000001 -26.926000000000002 55.25600000000001 -37.269 54.97800000000001 -40.349000000000004 L 54.47200000000001 -45.949000000000005 L 57.900000000000006 -46.392 C 72.459 -48.277 91.174 -51.213 100 -52.998000000000005 L 110.547 -55.132000000000005 L 111.52799999999999 -51.581 C 112.068 -49.628 113.37499999999999 -43.108000000000004 114.43299999999999 -37.092 M 0 -43.89 C 14.395 -43.89 29.559 -44.118 33.699 -44.397 L 41.226 -44.905 L 41.695 -40.217 C 41.952 -37.638999999999996 42.4 -27.531999999999996 42.69 -17.756 L 43.217 0.01699999999999946 L 0 0.01699999999999946 L -43.217 0.01699999999999946 L -42.69 -17.756 C -42.4 -27.532 -41.952 -37.638999999999996 -41.695 -40.217 L -41.226 -44.905 L -33.699 -44.397 C -29.558999999999997 -44.117999999999995 -14.395 -43.89 0 -43.89 M -18.75 19.032 C -18.75 25.134 -18.868 25.601 -20.607 26.394 C -21.628 26.858999999999998 -23.793 28.406 -25.416999999999998 29.833 C -35.132999999999996 38.363 -32.463 55.738 -20.607 61.14 C -18.750999999999998 61.986 -18.75 61.996 -18.75 76.156 L -18.75 90.325 L -21.887 93.38900000000001 L -25.025 96.45200000000001 L -34.387 87.11400000000002 L -43.75 77.77600000000002 L -43.75 45.14600000000002 L -43.75 12.517000000000024 L -31.25 12.517000000000024 L -18.75 12.517000000000024 L -18.75 19.032000000000025 M 156.208 18.962 L 156.165 25.408 L 152.49699999999999 27.751 C 150.47899999999998 29.040000000000003 147.773 31.746000000000002 146.48399999999998 33.764 L 144.141 37.432 L 126.63199999999999 37.475 L 109.124 37.517 L 99.64099999999999 46.892 L 90.15799999999999 56.267 L 76.13399999999999 56.225 L 62.10899999999999 56.182 L 59.76599999999999 52.514 C 58.47699999999999 50.496 55.770999999999994 47.790000000000006 53.75299999999999 46.501000000000005 L 50.084999999999994 44.158 L 50.041999999999994 39.480000000000004 L 49.99999999999999 34.80200000000001 L 61.12299999999999 23.660000000000007 L 72.24499999999999 12.517000000000007 L 114.24799999999999 12.517000000000007 L 156.25 12.517000000000007 L 156.208 18.962000000000007 M -8.594 39.861 C -7.725999999999999 40.729 -7.031 42.464999999999996 -7.031 43.766999999999996 C -7.031 45.068999999999996 -7.726 46.80499999999999 -8.594 47.672999999999995 C -9.462 48.541 -11.198 49.236 -12.5 49.236 C -13.802 49.236 -15.538 48.541 -16.406 47.672999999999995 C -17.273999999999997 46.80499999999999 -17.968999999999998 45.068999999999996 -17.968999999999998 43.766999999999996 C -17.968999999999998 42.464999999999996 -17.273999999999997 40.729 -16.406 39.861 C -15.537999999999998 38.992999999999995 -13.802 38.297999999999995 -12.499999999999998 38.297999999999995 C -11.197999999999999 38.297999999999995 -9.461999999999998 38.992999999999995 -8.593999999999998 39.861 M 166.406 39.861 C 167.274 40.729 167.969 42.464999999999996 167.969 43.766999999999996 C 167.969 45.068999999999996 167.274 46.80499999999999 166.406 47.672999999999995 C 165.538 48.541 163.802 49.236 162.5 49.236 C 161.198 49.236 159.462 48.541 158.594 47.672999999999995 C 157.726 46.80499999999999 157.031 45.068999999999996 157.031 43.766999999999996 C 157.031 42.464999999999996 157.726 40.729 158.594 39.861 C 159.462 38.992999999999995 161.198 38.297999999999995 162.5 38.297999999999995 C 163.802 38.297999999999995 165.538 38.992999999999995 166.406 39.861 M -83.594 46.111 C -82.726 46.979 -82.03099999999999 48.714999999999996 -82.03099999999999 50.016999999999996 C -82.03099999999999 51.318999999999996 -82.72599999999998 53.05499999999999 -83.594 53.922999999999995 C -84.46199999999999 54.791 -86.198 55.486 -87.5 55.486 C -88.802 55.486 -90.538 54.791 -91.406 53.922999999999995 C -92.274 53.05499999999999 -92.96900000000001 51.318999999999996 -92.96900000000001 50.016999999999996 C -92.96900000000001 48.714999999999996 -92.27400000000002 46.979 -91.406 46.111 C -90.53800000000001 45.242999999999995 -88.802 44.547999999999995 -87.5 44.547999999999995 C -86.198 44.547999999999995 -84.462 45.242999999999995 -83.594 46.111 M 47.656 58.611 C 48.524 59.479 49.219 61.214999999999996 49.219 62.516999999999996 C 49.219 63.818999999999996 48.524 65.55499999999999 47.656 66.423 C 46.788 67.291 45.052 67.986 43.75 67.986 C 42.448 67.986 40.712 67.29100000000001 39.844 66.423 C 38.976 65.555 38.281 63.819 38.281 62.517 C 38.281 61.215 38.976 59.479000000000006 39.844 58.611000000000004 C 40.712 57.743 42.448 57.048 43.75 57.048 C 45.052 57.048 46.788 57.743 47.656 58.611000000000004 M -146.094 83.611 C -142.712 86.992 -145.21 92.986 -150 92.986 C -153.007 92.986 -155.469 90.524 -155.469 87.51700000000001 C -155.469 84.51 -153.007 82.04800000000002 -150 82.04800000000002 C -148.698 82.04800000000002 -146.962 82.74300000000001 -146.094 83.61100000000002 M 130.017 88.625 C 126.624 90.103 122.438 93.959 120.676 97.231 L 119.176 100.017 L 98.65 100.017 C 72.343 100.017 75 97.705 75 120.595 L 75 138.047 L 73.143 138.894 C 54.862 147.223 61.1 175.017 81.25 175.017 C 101.4 175.017 107.638 147.22299999999998 89.357 138.894 C 87.512 138.053 87.5 137.964 87.5 125.28200000000001 L 87.5 112.51700000000001 L 103.32 112.55900000000001 L 119.14099999999999 112.60200000000002 L 121.484 116.24900000000002 C 131.908 132.47000000000003 156.216 125.48300000000002 156.216 106.26700000000002 C 156.216 92.61800000000002 142.327 83.26500000000003 130.017 88.62500000000003 M 141.406 102.361 C 142.274 103.229 142.969 104.965 142.969 106.26700000000001 C 142.969 107.56900000000002 142.274 109.305 141.406 110.17300000000002 C 140.538 111.04100000000001 138.802 111.73600000000002 137.5 111.73600000000002 C 136.198 111.73600000000002 134.462 111.04100000000003 133.594 110.17300000000002 C 132.726 109.30500000000002 132.031 107.56900000000002 132.031 106.26700000000001 C 132.031 104.965 132.726 103.22900000000001 133.594 102.361 C 134.462 101.49300000000001 136.198 100.798 137.5 100.798 C 138.802 100.798 140.538 101.493 141.406 102.361 M -120.703 114.001 C -132.42600000000002 119.44 -135.102 136.157 -125.681 145.095 C -116.53399999999999 153.773 -100.303 150.73499999999999 -95.127 139.374 C -94.329 137.623 -93.896 137.519 -87.57 137.559 L -80.859 137.602 L -78.51599999999999 141.249 C -68.09199999999998 157.47 -43.78399999999999 150.483 -43.78399999999999 131.267 C -43.78399999999999 112.05099999999999 -68.09199999999998 105.064 -78.51599999999999 121.285 L -80.859 124.932 L -87.57 124.97500000000001 C -93.89599999999999 125.01500000000001 -94.329 124.91100000000002 -95.127 123.16000000000001 C -99.223 114.168 -111.55 109.754 -120.703 114.001 M -108.594 127.361 C -107.726 128.229 -107.03099999999999 129.965 -107.03099999999999 131.267 C -107.03099999999999 132.569 -107.72599999999998 134.305 -108.594 135.173 C -111.975 138.555 -117.969 136.057 -117.969 131.267 C -117.969 128.26 -115.50699999999999 125.798 -112.5 125.798 C -111.198 125.798 -109.462 126.493 -108.594 127.361 M -58.594 127.361 C -57.726 128.229 -57.031 129.965 -57.031 131.267 C -57.031 132.569 -57.726 134.305 -58.594 135.173 C -59.462 136.041 -61.198 136.736 -62.5 136.736 C -63.802 136.736 -65.538 136.041 -66.406 135.173 C -67.274 134.305 -67.96900000000001 132.569 -67.96900000000001 131.267 C -67.96900000000001 129.965 -67.27400000000002 128.22899999999998 -66.406 127.36099999999999 C -65.53800000000001 126.493 -63.80200000000001 125.79799999999999 -62.50000000000001 125.79799999999999 C -61.19800000000001 125.79799999999999 -59.46200000000001 126.49299999999998 -58.59400000000001 127.36099999999999 M 85.156 152.361 C 86.024 153.22899999999998 86.71900000000001 154.965 86.71900000000001 156.267 C 86.71900000000001 157.569 86.02400000000002 159.305 85.156 160.173 C 84.28800000000001 161.041 82.552 161.736 81.25 161.736 C 79.948 161.736 78.212 161.041 77.344 160.173 C 76.476 159.305 75.78099999999999 157.569 75.78099999999999 156.267 C 75.78099999999999 154.965 76.47599999999998 153.22899999999998 77.344 152.361 C 78.21199999999999 151.493 79.948 150.798 81.25 150.798 C 82.552 150.798 84.288 151.493 85.156 152.361 M 35.156 164.861 C 36.024 165.72899999999998 36.719 167.465 36.719 168.767 C 36.719 170.069 36.024 171.805 35.156 172.673 C 34.288 173.541 32.552 174.236 31.25 174.236 C 29.948 174.236 28.212 173.541 27.344 172.673 C 26.476000000000003 171.805 25.781000000000002 170.069 25.781000000000002 168.767 C 25.781000000000002 167.465 26.476000000000003 165.72899999999998 27.344 164.861 C 28.212 163.993 29.948 163.298 31.25 163.298 C 32.552 163.298 34.288 163.993 35.156 164.861 M -21.094 171.111 C -20.226000000000003 171.97899999999998 -19.531000000000002 173.715 -19.531000000000002 175.017 C -19.531000000000002 176.319 -20.226000000000003 178.055 -21.094 178.923 C -21.962 179.791 -23.698 180.486 -25 180.486 C -26.302 180.486 -28.038 179.791 -28.906 178.923 C -29.773999999999997 178.055 -30.468999999999998 176.319 -30.468999999999998 175.017 C -30.468999999999998 173.715 -29.773999999999997 171.97899999999998 -28.906 171.111 C -28.038 170.243 -26.302 169.548 -25 169.548 C -23.698 169.548 -21.962 170.243 -21.094 171.111 M -225 -193.733 L -205 -193.733 L -205 -173.733 L -225 -173.733 z M 205 -193.733 L 225 -193.733 L 225 -173.733 L 205 -173.733 z" stroke-linecap="round" />
</g>
</svg>